STARTFONT 2.3
FONT -FontForge-Butcherman-Book-R-Normal--10-100-72-72-P-54-ISO10646-1
SIZE 10 72 72  2
FONTBOUNDINGBOX 15 20 -1 -7
COMMENT "Generated by fontforge, http://fontforge.sourceforge.net"
COMMENT "Copyright (c) 2011, Typomondo, with Reserved Font Name  "Butcherman"."
STARTPROPERTIES 41
FOUNDRY "FontForge"
FAMILY_NAME "Butcherman"
WEIGHT_NAME "Book"
SLANT "R"
SETWIDTH_NAME "Normal"
ADD_STYLE_NAME ""
PIXEL_SIZE 10
POINT_SIZE 100
RESOLUTION_X 72
RESOLUTION_Y 72
SPACING "P"
AVERAGE_WIDTH 54
CHARSET_REGISTRY "ISO10646"
CHARSET_ENCODING "1"
FONTNAME_REGISTRY ""
CHARSET_COLLECTIONS "ISO8859-2 ISO8859-9 ISO8859-4 ISO10646-1"
BITS_PER_PIXEL 2
FONT_NAME "Butcherman-Regular"
FACE_NAME "Butcherman Regular"
COPYRIGHT "Copyright (c) 2011, Typomondo, with Reserved Font Name  "Butcherman"."
FONT_VERSION "001.004"
FONT_ASCENT 8
FONT_DESCENT 2
UNDERLINE_POSITION -1
UNDERLINE_THICKNESS 1
X_HEIGHT 7
CAP_HEIGHT 7
DEFAULT_CHAR 3
RAW_ASCENT 799
RAW_DESCENT 200
NORM_SPACE 2
RELATIVE_WEIGHT 40
RELATIVE_SETWIDTH 50
SUPERSCRIPT_X 0
SUPERSCRIPT_Y 3
SUPERSCRIPT_SIZE 5
SUBSCRIPT_X 0
SUBSCRIPT_Y 0
SUBSCRIPT_SIZE 5
AVG_LOWERCASE_WIDTH 57
AVG_UPPERCASE_WIDTH 55
ENDPROPERTIES
CHARS 331
STARTCHAR NULL.dup1
ENCODING 0
SWIDTH 161 0
DWIDTH 2 0
BBX 1 1 0 0
BITMAP
00
ENDCHAR
STARTCHAR CR
ENCODING 13
SWIDTH 161 0
DWIDTH 2 0
BBX 1 1 0 0
BITMAP
00
ENDCHAR
STARTCHAR space
ENCODING 32
SWIDTH 161 0
DWIDTH 2 0
BBX 1 1 0 0
BITMAP
00
ENDCHAR
STARTCHAR exclam
ENCODING 33
SWIDTH 350 0
DWIDTH 4 0
BBX 3 13 0 0
BITMAP
10
BC
7C
78
78
38
34
34
10
58
7C
7C
54
ENDCHAR
STARTCHAR quotedbl
ENCODING 34
SWIDTH 541 0
DWIDTH 5 0
BBX 5 5 0 3
BITMAP
1140
7780
7680
3180
1000
ENDCHAR
STARTCHAR numbersign
ENCODING 35
SWIDTH 583 0
DWIDTH 6 0
BBX 6 9 0 -1
BITMAP
0450
0880
2ED0
3FD0
2240
2240
FF80
5600
4500
ENDCHAR
STARTCHAR dollar
ENCODING 36
SWIDTH 534 0
DWIDTH 5 0
BBX 5 13 0 -3
BITMAP
0400
0800
0900
3F80
7FC0
BFC0
BA40
2F40
2740
3F00
0900
0800
0400
ENDCHAR
STARTCHAR percent
ENCODING 37
SWIDTH 828 0
DWIDTH 8 0
BBX 8 9 0 -1
BITMAP
0050
B890
BC90
9C89
759F
025F
021A
0204
0500
ENDCHAR
STARTCHAR ampersand
ENCODING 38
SWIDTH 522 0
DWIDTH 5 0
BBX 5 6 0 1
BITMAP
0400
1D00
6E80
BF80
1D00
0900
ENDCHAR
STARTCHAR quotesingle
ENCODING 39
SWIDTH 300 0
DWIDTH 3 0
BBX 3 5 0 3
BITMAP
50
74
74
34
10
ENDCHAR
STARTCHAR parenleft
ENCODING 40
SWIDTH 372 0
DWIDTH 4 0
BBX 4 10 0 -1
BITMAP
01
1D
3D
7D
B4
B0
B0
74
3C
1D
ENDCHAR
STARTCHAR parenright
ENCODING 41
SWIDTH 338 0
DWIDTH 3 0
BBX 3 11 0 -2
BITMAP
40
B4
BC
BC
2C
28
28
28
34
A0
40
ENDCHAR
STARTCHAR asterisk
ENCODING 42
SWIDTH 513 0
DWIDTH 5 0
BBX 5 6 0 2
BITMAP
1200
2A00
6E40
6E40
1E00
1500
ENDCHAR
STARTCHAR plus
ENCODING 43
SWIDTH 458 0
DWIDTH 5 0
BBX 4 5 0 1
BITMAP
18
6D
BF
1C
04
ENDCHAR
STARTCHAR comma
ENCODING 44
SWIDTH 361 0
DWIDTH 4 0
BBX 3 6 0 -2
BITMAP
14
7C
BC
6C
0C
04
ENDCHAR
STARTCHAR hyphen
ENCODING 45
SWIDTH 478 0
DWIDTH 5 0
BBX 4 2 0 3
BITMAP
6A
7F
ENDCHAR
STARTCHAR period
ENCODING 46
SWIDTH 374 0
DWIDTH 4 0
BBX 4 4 0 0
BITMAP
54
7D
7D
14
ENDCHAR
STARTCHAR slash
ENCODING 47
SWIDTH 291 0
DWIDTH 3 0
BBX 3 9 0 -1
BITMAP
08
18
14
20
20
60
50
80
80
ENDCHAR
STARTCHAR zero
ENCODING 48
SWIDTH 528 0
DWIDTH 5 0
BBX 5 9 0 -1
BITMAP
0500
3F40
BF80
7F80
7780
7380
7740
3F00
0500
ENDCHAR
STARTCHAR one
ENCODING 49
SWIDTH 366 0
DWIDTH 4 0
BBX 4 8 0 0
BITMAP
04
BC
7D
3C
2C
2C
2C
18
ENDCHAR
STARTCHAR two
ENCODING 50
SWIDTH 575 0
DWIDTH 6 0
BBX 6 9 0 -1
BITMAP
0500
7F40
7FC0
7FC0
7780
0740
0F50
7FD0
6480
ENDCHAR
STARTCHAR three
ENCODING 51
SWIDTH 517 0
DWIDTH 5 0
BBX 5 9 0 -1
BITMAP
1400
7F00
BF80
7F80
6780
0F40
1680
2F40
0500
ENDCHAR
STARTCHAR four
ENCODING 52
SWIDTH 466 0
DWIDTH 5 0
BBX 5 10 0 -2
BITMAP
1500
3D00
3C00
7800
7900
7B00
7B00
BF40
0600
0200
ENDCHAR
STARTCHAR five
ENCODING 53
SWIDTH 583 0
DWIDTH 6 0
BBX 6 9 0 -1
BITMAP
5540
7FD0
7FD0
7FD0
7540
7F40
1680
2F40
0500
ENDCHAR
STARTCHAR six
ENCODING 54
SWIDTH 582 0
DWIDTH 6 0
BBX 6 9 0 -1
BITMAP
0500
7F80
BFD0
BFD0
76C0
3A80
3AC0
2FC0
1A80
ENDCHAR
STARTCHAR seven
ENCODING 55
SWIDTH 624 0
DWIDTH 6 0
BBX 6 9 0 -1
BITMAP
1550
BFF0
BFE0
7FD0
11C0
0380
0740
0A00
0900
ENDCHAR
STARTCHAR eight
ENCODING 56
SWIDTH 459 0
DWIDTH 5 0
BBX 4 9 0 -1
BITMAP
15
BF
BF
7F
76
3D
3A
3D
14
ENDCHAR
STARTCHAR nine
ENCODING 57
SWIDTH 584 0
DWIDTH 6 0
BBX 6 9 0 -1
BITMAP
0500
2F80
7FD0
BFD0
7AD0
2FC0
2680
3F40
0500
ENDCHAR
STARTCHAR colon
ENCODING 58
SWIDTH 386 0
DWIDTH 4 0
BBX 4 9 0 0
BITMAP
54
7D
7D
24
00
58
7D
7D
24
ENDCHAR
STARTCHAR semicolon
ENCODING 59
SWIDTH 375 0
DWIDTH 4 0
BBX 3 11 0 -2
BITMAP
54
7C
7C
64
00
14
7C
7C
6C
0C
04
ENDCHAR
STARTCHAR less
ENCODING 60
SWIDTH 459 0
DWIDTH 5 0
BBX 4 6 0 0
BITMAP
2F
3D
B8
3C
1E
01
ENDCHAR
STARTCHAR equal
ENCODING 61
SWIDTH 485 0
DWIDTH 5 0
BBX 4 3 0 3
BITMAP
7F
15
7F
ENDCHAR
STARTCHAR greater
ENCODING 62
SWIDTH 432 0
DWIDTH 4 0
BBX 4 5 0 1
BITMAP
7C
2D
0F
2D
78
ENDCHAR
STARTCHAR question
ENCODING 63
SWIDTH 577 0
DWIDTH 6 0
BBX 5 9 0 -1
BITMAP
2A00
7F80
7FC0
67C0
0780
0B00
0400
0E00
0E00
ENDCHAR
STARTCHAR at
ENCODING 64
SWIDTH 930 0
DWIDTH 9 0
BBX 9 12 0 -3
BITMAP
019000
0BA800
26AA00
27F740
57F680
9772C0
92B1C0
637980
72EA40
280000
0BF400
004000
ENDCHAR
STARTCHAR A
ENCODING 65
SWIDTH 494 0
DWIDTH 5 0
BBX 5 9 0 -1
BITMAP
1400
7F40
3F00
3E00
3E00
3A00
3E00
3A00
2500
ENDCHAR
STARTCHAR B
ENCODING 66
SWIDTH 517 0
DWIDTH 5 0
BBX 5 9 0 -1
BITMAP
1500
7F80
3F80
3F80
3A40
2F00
2B40
2F00
0500
ENDCHAR
STARTCHAR C
ENCODING 67
SWIDTH 504 0
DWIDTH 5 0
BBX 5 9 0 -1
BITMAP
0500
7F40
BF80
BF80
B780
7400
7740
3F00
0500
ENDCHAR
STARTCHAR D
ENCODING 68
SWIDTH 522 0
DWIDTH 5 0
BBX 5 9 0 -1
BITMAP
0500
BF80
7FC0
3FC0
3980
3980
2A40
2F40
1500
ENDCHAR
STARTCHAR E
ENCODING 69
SWIDTH 570 0
DWIDTH 6 0
BBX 5 9 0 -1
BITMAP
1540
7FC0
3F80
3F80
3900
2F00
2900
2F00
0400
ENDCHAR
STARTCHAR F
ENCODING 70
SWIDTH 559 0
DWIDTH 6 0
BBX 5 9 0 -1
BITMAP
1500
7FC0
2F80
2F80
2D40
2F40
1C00
2C00
0400
ENDCHAR
STARTCHAR G
ENCODING 71
SWIDTH 499 0
DWIDTH 5 0
BBX 5 9 0 -1
BITMAP
0400
7F40
BF80
BF80
7780
7640
7780
3F40
1500
ENDCHAR
STARTCHAR H
ENCODING 72
SWIDTH 726 0
DWIDTH 7 0
BBX 7 9 0 -1
BITMAP
0450
7CB8
3CF4
3CF0
2DE0
2FE0
1DD0
1DD0
0040
ENDCHAR
STARTCHAR I
ENCODING 73
SWIDTH 401 0
DWIDTH 4 0
BBX 4 9 0 -1
BITMAP
55
7D
3D
3C
3C
2C
2C
18
04
ENDCHAR
STARTCHAR J
ENCODING 74
SWIDTH 455 0
DWIDTH 5 0
BBX 4 9 0 -1
BITMAP
05
1F
0E
0D
0D
5D
DC
B8
10
ENDCHAR
STARTCHAR K
ENCODING 75
SWIDTH 580 0
DWIDTH 6 0
BBX 5 8 0 0
BITMAP
5540
7AC0
3B40
2F00
2F00
1F00
1F40
1A40
ENDCHAR
STARTCHAR L
ENCODING 76
SWIDTH 416 0
DWIDTH 4 0
BBX 5 9 0 -1
BITMAP
5400
7C00
7800
3800
3800
3800
2D00
2F40
0500
ENDCHAR
STARTCHAR M
ENCODING 77
SWIDTH 740 0
DWIDTH 7 0
BBX 7 8 0 0
BITMAP
1450
7DF8
3FF4
3FF4
2FF4
2FB0
1EB0
1960
ENDCHAR
STARTCHAR N
ENCODING 78
SWIDTH 610 0
DWIDTH 6 0
BBX 6 9 0 -1
BITMAP
1540
7DD0
3EC0
3FC0
3FC0
2F80
2B80
2A80
1540
ENDCHAR
STARTCHAR O
ENCODING 79
SWIDTH 504 0
DWIDTH 5 0
BBX 5 9 0 -1
BITMAP
0400
7F40
BF80
BF80
7780
7380
3740
3F00
0500
ENDCHAR
STARTCHAR P
ENCODING 80
SWIDTH 545 0
DWIDTH 5 0
BBX 5 9 0 -1
BITMAP
1500
7FC0
3FC0
2EC0
2DC0
1E80
1D00
1C00
0400
ENDCHAR
STARTCHAR Q
ENCODING 81
SWIDTH 520 0
DWIDTH 5 0
BBX 5 9 0 -1
BITMAP
0500
7F40
BFC0
BFC0
B6C0
7680
3B80
1F80
0680
ENDCHAR
STARTCHAR R
ENCODING 82
SWIDTH 599 0
DWIDTH 6 0
BBX 6 9 0 -1
BITMAP
1500
7FD0
2FE0
2EE0
2CE0
1FD0
1EC0
0DC0
0440
ENDCHAR
STARTCHAR S
ENCODING 83
SWIDTH 504 0
DWIDTH 5 0
BBX 5 9 0 -1
BITMAP
0500
3F80
BF80
BF80
BA40
2F40
6740
3F00
1500
ENDCHAR
STARTCHAR T
ENCODING 84
SWIDTH 622 0
DWIDTH 6 0
BBX 6 9 0 -1
BITMAP
1540
7FE0
3FD0
3FD0
1B00
0B00
0B00
0700
0600
ENDCHAR
STARTCHAR U
ENCODING 85
SWIDTH 637 0
DWIDTH 6 0
BBX 6 8 0 0
BITMAP
5440
79E0
39D0
3DD0
29C0
2AC0
2E80
1E40
ENDCHAR
STARTCHAR V
ENCODING 86
SWIDTH 570 0
DWIDTH 6 0
BBX 6 9 0 -1
BITMAP
5550
76D0
3780
3B80
3B40
2F00
2F00
1E00
0900
ENDCHAR
STARTCHAR W
ENCODING 87
SWIDTH 777 0
DWIDTH 8 0
BBX 8 8 0 0
BITMAP
0554
7AAD
2FF4
1FF0
0FE0
0BE0
06D0
0680
ENDCHAR
STARTCHAR X
ENCODING 88
SWIDTH 587 0
DWIDTH 6 0
BBX 6 9 0 -1
BITMAP
1500
7ED0
1F40
0F00
0F00
0A00
0F00
0B40
1500
ENDCHAR
STARTCHAR Y
ENCODING 89
SWIDTH 688 0
DWIDTH 7 0
BBX 6 8 1 0
BITMAP
5100
B7D0
2F80
1F00
0F00
0B00
0A00
0600
ENDCHAR
STARTCHAR Z
ENCODING 90
SWIDTH 695 0
DWIDTH 7 0
BBX 7 8 0 0
BITMAP
1540
7FF8
3FF0
2FE0
1780
0B00
0E40
1F80
ENDCHAR
STARTCHAR bracketleft
ENCODING 91
SWIDTH 410 0
DWIDTH 4 0
BBX 4 9 0 0
BITMAP
69
7E
79
70
70
74
74
74
3E
ENDCHAR
STARTCHAR backslash
ENCODING 92
SWIDTH 292 0
DWIDTH 3 0
BBX 3 9 0 -1
BITMAP
80
90
50
60
30
24
14
08
08
ENDCHAR
STARTCHAR bracketright
ENCODING 93
SWIDTH 407 0
DWIDTH 4 0
BBX 4 9 0 0
BITMAP
69
BD
6D
0D
0D
0D
0D
0D
BD
ENDCHAR
STARTCHAR asciicircum
ENCODING 94
SWIDTH 523 0
DWIDTH 5 0
BBX 5 4 0 7
BITMAP
1900
2F00
7780
6180
ENDCHAR
STARTCHAR underscore
ENCODING 95
SWIDTH 452 0
DWIDTH 5 0
BBX 4 3 0 -1
BITMAP
15
BF
15
ENDCHAR
STARTCHAR grave
ENCODING 96
SWIDTH 444 0
DWIDTH 4 0
BBX 4 3 0 7
BITMAP
24
6D
01
ENDCHAR
STARTCHAR a
ENCODING 97
SWIDTH 479 0
DWIDTH 5 0
BBX 5 9 0 -1
BITMAP
5540
7F40
3F00
3F00
3F00
3B00
3B00
3B00
2200
ENDCHAR
STARTCHAR b
ENCODING 98
SWIDTH 610 0
DWIDTH 6 0
BBX 6 9 0 -1
BITMAP
0540
7FE0
2FE0
2FE0
2DD0
1FC0
1DC0
0EC0
0580
ENDCHAR
STARTCHAR c
ENCODING 99
SWIDTH 534 0
DWIDTH 5 0
BBX 5 9 0 -1
BITMAP
0500
7F80
BFC0
BFC0
76C0
7400
3A40
2F40
0500
ENDCHAR
STARTCHAR d
ENCODING 100
SWIDTH 573 0
DWIDTH 6 0
BBX 6 9 0 -1
BITMAP
1500
7FC0
3FE0
3FE0
2DD0
1CC0
1DC0
1E80
1640
ENDCHAR
STARTCHAR e
ENCODING 101
SWIDTH 632 0
DWIDTH 6 0
BBX 6 9 0 -1
BITMAP
1540
7FE0
3FD0
3FC0
2C40
2F80
1D40
1F80
0140
ENDCHAR
STARTCHAR f
ENCODING 102
SWIDTH 559 0
DWIDTH 6 0
BBX 5 9 0 -1
BITMAP
1500
7FC0
2F80
2F80
2D40
2F00
1C00
2C00
0400
ENDCHAR
STARTCHAR g
ENCODING 103
SWIDTH 546 0
DWIDTH 5 0
BBX 6 9 0 -1
BITMAP
0500
7F80
BFD0
BFD0
76C0
7640
3BC0
2F80
1A40
ENDCHAR
STARTCHAR h
ENCODING 104
SWIDTH 730 0
DWIDTH 7 0
BBX 7 9 0 -1
BITMAP
0454
7CB8
3CB4
3CB0
2DE0
2EE0
1DD0
1DD0
0040
ENDCHAR
STARTCHAR i
ENCODING 105
SWIDTH 412 0
DWIDTH 4 0
BBX 4 8 0 0
BITMAP
55
7D
2D
2C
2C
2C
18
18
ENDCHAR
STARTCHAR j
ENCODING 106
SWIDTH 458 0
DWIDTH 5 0
BBX 4 9 0 -1
BITMAP
14
1F
1E
0E
0E
5E
DD
BD
04
ENDCHAR
STARTCHAR k
ENCODING 107
SWIDTH 636 0
DWIDTH 6 0
BBX 6 9 0 -1
BITMAP
1450
7DD0
3E80
2E40
1F00
1F00
0E40
0DC0
0040
ENDCHAR
STARTCHAR l
ENCODING 108
SWIDTH 438 0
DWIDTH 4 0
BBX 5 9 0 -1
BITMAP
1500
7D00
3C00
3C00
2C00
2C00
1D40
1F40
1100
ENDCHAR
STARTCHAR m
ENCODING 109
SWIDTH 770 0
DWIDTH 8 0
BBX 7 9 0 -1
BITMAP
0554
7DF8
3EF4
3FF4
3FF0
2FF0
2BA0
1990
1000
ENDCHAR
STARTCHAR n
ENCODING 110
SWIDTH 664 0
DWIDTH 7 0
BBX 6 9 0 -1
BITMAP
5450
7DF0
3EE0
3FE0
3FD0
2FD0
2BC0
2A80
1540
ENDCHAR
STARTCHAR o
ENCODING 111
SWIDTH 545 0
DWIDTH 5 0
BBX 6 9 0 -1
BITMAP
0500
7F80
BFD0
BFD0
77C0
76C0
3780
2F40
0100
ENDCHAR
STARTCHAR p
ENCODING 112
SWIDTH 557 0
DWIDTH 6 0
BBX 6 9 0 -1
BITMAP
1500
7FC0
3FD0
3FC0
2DC0
2E80
1D40
1C00
0400
ENDCHAR
STARTCHAR q
ENCODING 113
SWIDTH 562 0
DWIDTH 6 0
BBX 6 9 0 -1
BITMAP
0500
7F80
BFD0
BED0
79D0
79D0
3EC0
1FC0
0580
ENDCHAR
STARTCHAR r
ENCODING 114
SWIDTH 616 0
DWIDTH 6 0
BBX 6 9 0 -1
BITMAP
1500
7FE0
2FF0
2EE0
2DE0
1FD0
1EC0
1DC0
0480
ENDCHAR
STARTCHAR s
ENCODING 115
SWIDTH 481 0
DWIDTH 5 0
BBX 5 9 0 -1
BITMAP
0400
3F40
BF80
BF40
B640
7E00
1B00
3E00
1500
ENDCHAR
STARTCHAR t
ENCODING 116
SWIDTH 683 0
DWIDTH 7 0
BBX 7 9 0 -1
BITMAP
1550
BFF4
3FF0
3FE0
1740
0780
0340
0340
0340
ENDCHAR
STARTCHAR u
ENCODING 117
SWIDTH 708 0
DWIDTH 7 0
BBX 7 8 0 0
BITMAP
1440
7CB8
3DB4
2DB0
2DF0
2DE0
1EE0
0AD0
ENDCHAR
STARTCHAR v
ENCODING 118
SWIDTH 644 0
DWIDTH 6 0
BBX 5 9 1 -1
BITMAP
5140
E780
B740
B700
7B00
3E00
2D00
1D00
0400
ENDCHAR
STARTCHAR w
ENCODING 119
SWIDTH 704 0
DWIDTH 7 0
BBX 7 8 0 0
BITMAP
0100
7B78
2BB0
1FE0
0FE0
0FD0
0AD0
05C0
ENDCHAR
STARTCHAR x
ENCODING 120
SWIDTH 599 0
DWIDTH 6 0
BBX 6 9 0 -1
BITMAP
1540
7ED0
1F40
0F00
0F00
0A00
0F00
0E40
0400
ENDCHAR
STARTCHAR y
ENCODING 121
SWIDTH 604 0
DWIDTH 6 0
BBX 5 9 1 -1
BITMAP
4000
AB40
7E00
3D00
2C00
1C00
1C00
1C00
1400
ENDCHAR
STARTCHAR z
ENCODING 122
SWIDTH 622 0
DWIDTH 6 0
BBX 6 9 0 -1
BITMAP
1540
7FE0
3FD0
2FC0
1740
0A00
0A00
0F80
0140
ENDCHAR
STARTCHAR braceleft
ENCODING 123
SWIDTH 372 0
DWIDTH 4 0
BBX 4 10 0 -1
BITMAP
01
1D
3D
7D
B4
B0
B0
74
3C
1D
ENDCHAR
STARTCHAR bar
ENCODING 124
SWIDTH 208 0
DWIDTH 2 0
BBX 2 9 0 -1
BITMAP
50
50
50
50
50
50
50
50
50
ENDCHAR
STARTCHAR braceright
ENCODING 125
SWIDTH 338 0
DWIDTH 3 0
BBX 3 11 0 -2
BITMAP
40
B4
BC
BC
2C
28
28
28
34
A0
40
ENDCHAR
STARTCHAR asciitilde
ENCODING 126
SWIDTH 535 0
DWIDTH 5 0
BBX 5 3 0 5
BITMAP
1240
7F80
1400
ENDCHAR
STARTCHAR exclamdown
ENCODING 161
SWIDTH 347 0
DWIDTH 3 0
BBX 3 13 0 0
BITMAP
10
7C
7C
68
00
34
34
38
38
78
7C
BC
54
ENDCHAR
STARTCHAR cent
ENCODING 162
SWIDTH 552 0
DWIDTH 6 0
BBX 5 14 0 -4
BITMAP
0400
0400
0900
7F80
BFC0
BFC0
7AC0
7400
3A40
2F40
0900
0400
0400
0400
ENDCHAR
STARTCHAR sterling
ENCODING 163
SWIDTH 589 0
DWIDTH 6 0
BBX 6 9 0 -1
BITMAP
0500
7F80
BFD0
7FD0
76D0
7840
3940
3F80
0500
ENDCHAR
STARTCHAR yen
ENCODING 165
SWIDTH 692 0
DWIDTH 7 0
BBX 7 8 0 1
BITMAP
6454
2DF4
0FD0
1BD4
17D0
6BE4
0380
0280
ENDCHAR
STARTCHAR brokenbar
ENCODING 166
SWIDTH 201 0
DWIDTH 2 0
BBX 2 9 0 -1
BITMAP
50
50
50
00
00
50
50
50
50
ENDCHAR
STARTCHAR section
ENCODING 167
SWIDTH 477 0
DWIDTH 5 0
BBX 5 10 0 -2
BITMAP
0500
3F40
7F40
3B00
3E00
B700
BA00
6D00
6900
2800
ENDCHAR
STARTCHAR dieresis
ENCODING 168
SWIDTH 633 0
DWIDTH 6 0
BBX 6 3 0 8
BITMAP
1050
7AE0
79D0
ENDCHAR
STARTCHAR copyright
ENCODING 169
SWIDTH 783 0
DWIDTH 8 0
BBX 8 9 0 -1
BITMAP
0690
2694
6BE4
8BE5
8A91
9A05
57D8
25A4
0690
ENDCHAR
STARTCHAR guillemotleft
ENCODING 171
SWIDTH 759 0
DWIDTH 8 0
BBX 7 6 0 0
BITMAP
1E78
3CF4
B5E0
78F0
1D78
0504
ENDCHAR
STARTCHAR uni00AD
ENCODING 173
SWIDTH 446 0
DWIDTH 4 0
BBX 4 1 0 3
BITMAP
7F
ENDCHAR
STARTCHAR registered
ENCODING 174
SWIDTH 780 0
DWIDTH 8 0
BBX 8 9 0 -1
BITMAP
0640
2A54
6BD4
9BE5
8795
47C1
23A4
1964
0690
ENDCHAR
STARTCHAR macron
ENCODING 175
SWIDTH 446 0
DWIDTH 4 0
BBX 4 1 0 3
BITMAP
7F
ENDCHAR
STARTCHAR acute
ENCODING 180
SWIDTH 439 0
DWIDTH 4 0
BBX 4 2 0 8
BITMAP
08
7D
ENDCHAR
STARTCHAR mu
ENCODING 181
SWIDTH 679 0
DWIDTH 7 0
BBX 7 8 0 0
BITMAP
1440
7CF8
7CF0
3CE0
2CE0
2DE0
1ED0
1EC0
ENDCHAR
STARTCHAR paragraph
ENCODING 182
SWIDTH 591 0
DWIDTH 6 0
BBX 6 9 0 -1
BITMAP
1540
BFD0
BE80
7EC0
7D80
1580
0140
0140
0040
ENDCHAR
STARTCHAR periodcentered
ENCODING 183
SWIDTH 388 0
DWIDTH 4 0
BBX 4 4 0 2
BITMAP
14
7D
7D
28
ENDCHAR
STARTCHAR cedilla
ENCODING 184
SWIDTH 270 0
DWIDTH 3 0
BBX 3 4 0 -4
BITMAP
60
64
24
10
ENDCHAR
STARTCHAR guillemotright
ENCODING 187
SWIDTH 767 0
DWIDTH 8 0
BBX 8 6 0 0
BITMAP
78E0
2D78
0E2D
2D3C
78B4
0050
ENDCHAR
STARTCHAR Agrave
ENCODING 192
SWIDTH 494 0
DWIDTH 5 0
BBX 5 11 0 -1
BITMAP
9000
B400
1400
7F40
3F00
3E00
3E00
3A00
3E00
3A00
2500
ENDCHAR
STARTCHAR Aacute
ENCODING 193
SWIDTH 494 0
DWIDTH 5 0
BBX 6 11 0 -1
BITMAP
0080
07D0
1500
7F40
3F00
3E00
3E00
3A00
3E00
3A00
2500
ENDCHAR
STARTCHAR Acircumflex
ENCODING 194
SWIDTH 494 0
DWIDTH 5 0
BBX 5 13 0 -1
BITMAP
1400
3E00
7740
9140
1400
7F40
3F00
3E00
3E00
3A00
3E00
3A00
2500
ENDCHAR
STARTCHAR Atilde
ENCODING 195
SWIDTH 494 0
DWIDTH 5 0
BBX 5 12 0 -1
BITMAP
0100
BF80
2540
1400
7F40
3F00
3E00
3E00
3A00
3E00
3A00
2500
ENDCHAR
STARTCHAR Adieresis
ENCODING 196
SWIDTH 494 0
DWIDTH 5 0
BBX 5 12 0 -1
BITMAP
5140
F3C0
F380
1400
7F40
3F00
3E00
3E00
3A00
3E00
3A00
2500
ENDCHAR
STARTCHAR Aring
ENCODING 197
SWIDTH 494 0
DWIDTH 5 0
BBX 5 12 0 -1
BITMAP
1900
2600
1900
1400
7F40
3F00
3E00
3E00
3A00
3E00
3A00
2500
ENDCHAR
STARTCHAR AE
ENCODING 198
SWIDTH 733 0
DWIDTH 7 0
BBX 7 9 0 -1
BITMAP
1550
7FF8
3FF4
3FF0
3F90
3BE0
3F50
3AE0
2550
ENDCHAR
STARTCHAR Ccedilla
ENCODING 199
SWIDTH 504 0
DWIDTH 5 0
BBX 5 13 0 -5
BITMAP
0500
7F40
BF80
BF80
B780
7400
7740
3F00
0500
0200
0240
0180
0140
ENDCHAR
STARTCHAR Egrave
ENCODING 200
SWIDTH 570 0
DWIDTH 6 0
BBX 5 11 0 -1
BITMAP
6000
B800
1940
7FC0
3F80
3F80
3900
2F00
2900
2F00
0400
ENDCHAR
STARTCHAR Eacute
ENCODING 201
SWIDTH 570 0
DWIDTH 6 0
BBX 6 11 0 -1
BITMAP
0060
02E0
1640
7FC0
3F80
3F80
3900
2F00
2900
2F00
0400
ENDCHAR
STARTCHAR Ecircumflex
ENCODING 202
SWIDTH 570 0
DWIDTH 6 0
BBX 5 13 0 -1
BITMAP
0500
2F00
3680
6080
1540
7FC0
3F80
3F80
3900
2F00
2900
2F00
0400
ENDCHAR
STARTCHAR Edieresis
ENCODING 203
SWIDTH 570 0
DWIDTH 6 0
BBX 6 12 0 -1
BITMAP
1140
B6D0
76D0
1540
7FC0
3F80
3F80
3900
2F00
2900
2F00
0400
ENDCHAR
STARTCHAR Igrave
ENCODING 204
SWIDTH 401 0
DWIDTH 4 0
BBX 5 11 -1 -1
BITMAP
6000
7C00
1940
1F40
0F40
0F00
0F00
0B00
0B00
0600
0100
ENDCHAR
STARTCHAR Iacute
ENCODING 205
SWIDTH 401 0
DWIDTH 4 0
BBX 5 11 0 -1
BITMAP
0180
0B80
5900
7D00
3D00
3C00
3C00
2C00
2C00
1800
0400
ENDCHAR
STARTCHAR Icircumflex
ENCODING 206
SWIDTH 401 0
DWIDTH 4 0
BBX 4 13 0 -1
BITMAP
14
7D
EA
82
55
7D
3D
3C
3C
2C
2C
18
04
ENDCHAR
STARTCHAR Idieresis
ENCODING 207
SWIDTH 401 0
DWIDTH 4 0
BBX 6 12 -1 -1
BITMAP
1140
7AD0
76D0
1540
1F40
0F40
0F00
0F00
0B00
0B00
0600
0100
ENDCHAR
STARTCHAR Eth
ENCODING 208
SWIDTH 530 0
DWIDTH 5 0
BBX 6 9 0 -1
BITMAP
0500
3FC0
2FD0
2FD0
2DD0
6DC0
1D80
1F80
0200
ENDCHAR
STARTCHAR Ntilde
ENCODING 209
SWIDTH 610 0
DWIDTH 6 0
BBX 6 12 0 -1
BITMAP
0100
7BC0
1940
1540
7DD0
3EC0
3FC0
3FC0
2F80
2B80
2A80
1540
ENDCHAR
STARTCHAR Ograve
ENCODING 210
SWIDTH 504 0
DWIDTH 5 0
BBX 6 11 -1 -1
BITMAP
2400
6D00
0600
1FD0
2FE0
2FE0
1DE0
1CE0
0DD0
0FC0
0140
ENDCHAR
STARTCHAR Oacute
ENCODING 211
SWIDTH 504 0
DWIDTH 5 0
BBX 6 11 0 -1
BITMAP
0080
07D0
0500
7F40
BF80
BF80
7780
7380
3740
3F00
0500
ENDCHAR
STARTCHAR Ocircumflex
ENCODING 212
SWIDTH 504 0
DWIDTH 5 0
BBX 5 13 0 -1
BITMAP
1400
3E00
7740
9140
0400
7F40
BF80
BF80
7780
7380
3740
3F00
0500
ENDCHAR
STARTCHAR Otilde
ENCODING 213
SWIDTH 504 0
DWIDTH 5 0
BBX 5 12 0 -1
BITMAP
0100
EF40
6600
0400
7F40
BF80
BF80
7780
7380
3740
3F00
0500
ENDCHAR
STARTCHAR Odieresis
ENCODING 214
SWIDTH 504 0
DWIDTH 5 0
BBX 5 12 0 -1
BITMAP
5140
F3C0
F380
0400
7F40
BF80
BF80
7780
7380
3740
3F00
0500
ENDCHAR
STARTCHAR multiply
ENCODING 215
SWIDTH 359 0
DWIDTH 4 0
BBX 4 4 0 2
BITMAP
14
BD
7C
6D
ENDCHAR
STARTCHAR Oslash
ENCODING 216
SWIDTH 658 0
DWIDTH 7 0
BBX 7 9 0 -1
BITMAP
0500
2F84
7FE0
7FD0
37D0
3AC0
3AC0
6F80
0500
ENDCHAR
STARTCHAR Ugrave
ENCODING 217
SWIDTH 637 0
DWIDTH 6 0
BBX 6 10 0 0
BITMAP
2400
6D00
5540
79E0
39D0
3DD0
29C0
2AC0
2E80
1E40
ENDCHAR
STARTCHAR Uacute
ENCODING 218
SWIDTH 637 0
DWIDTH 6 0
BBX 7 10 0 0
BITMAP
0060
01E4
5540
79E0
39D0
3DD0
29C0
2AC0
2E80
1E40
ENDCHAR
STARTCHAR Ucircumflex
ENCODING 219
SWIDTH 637 0
DWIDTH 6 0
BBX 6 12 0 0
BITMAP
0500
0F40
2AC0
2090
5440
79E0
39D0
3DD0
29C0
2AC0
2E80
1E40
ENDCHAR
STARTCHAR Udieresis
ENCODING 220
SWIDTH 637 0
DWIDTH 6 0
BBX 6 11 0 0
BITMAP
1450
79E0
39E0
5440
79E0
39D0
3DD0
29C0
2AC0
2E80
1E40
ENDCHAR
STARTCHAR Yacute
ENCODING 221
SWIDTH 688 0
DWIDTH 7 0
BBX 6 11 1 0
BITMAP
0090
03E0
0100
5100
B7D0
2F80
1F00
0F00
0B00
0A00
0600
ENDCHAR
STARTCHAR Thorn
ENCODING 222
SWIDTH 521 0
DWIDTH 5 0
BBX 5 10 0 -1
BITMAP
B800
B900
BF80
7FC0
7F80
7980
3E40
3900
2800
1400
ENDCHAR
STARTCHAR germandbls
ENCODING 223
SWIDTH 546 0
DWIDTH 5 0
BBX 5 9 0 -1
BITMAP
0500
7FC0
BFC0
BFC0
7680
7B40
7740
3740
1600
ENDCHAR
STARTCHAR agrave
ENCODING 224
SWIDTH 479 0
DWIDTH 5 0
BBX 5 11 0 -1
BITMAP
9000
B800
5940
7F40
3F00
3F00
3F00
3B00
3B00
3B00
2200
ENDCHAR
STARTCHAR aacute
ENCODING 225
SWIDTH 479 0
DWIDTH 5 0
BBX 6 12 0 -1
BITMAP
0090
02E0
0100
5540
7F40
3F00
3F00
3F00
3B00
3B00
3B00
2200
ENDCHAR
STARTCHAR acircumflex
ENCODING 226
SWIDTH 479 0
DWIDTH 5 0
BBX 5 13 0 -1
BITMAP
1500
2E00
7740
5180
5540
7F40
3F00
3F00
3F00
3B00
3B00
3B00
2200
ENDCHAR
STARTCHAR atilde
ENCODING 227
SWIDTH 479 0
DWIDTH 5 0
BBX 5 12 0 -1
BITMAP
0100
BF40
2500
5540
7F40
3F00
3F00
3F00
3B00
3B00
3B00
2200
ENDCHAR
STARTCHAR adieresis
ENCODING 228
SWIDTH 479 0
DWIDTH 5 0
BBX 5 12 0 -1
BITMAP
5140
B3C0
B3C0
5540
7F40
3F00
3F00
3F00
3B00
3B00
3B00
2200
ENDCHAR
STARTCHAR aring
ENCODING 229
SWIDTH 479 0
DWIDTH 5 0
BBX 5 12 0 -1
BITMAP
1900
2600
1900
5540
7F40
3F00
3F00
3F00
3B00
3B00
3B00
2200
ENDCHAR
STARTCHAR ae
ENCODING 230
SWIDTH 755 0
DWIDTH 8 0
BBX 7 9 0 -1
BITMAP
5550
7FFC
3FF8
3FF4
3F40
3BE0
3B90
3BE0
2150
ENDCHAR
STARTCHAR ccedilla
ENCODING 231
SWIDTH 534 0
DWIDTH 5 0
BBX 5 13 0 -5
BITMAP
0500
7F80
BFC0
BFC0
76C0
7400
3A40
2F40
0500
0600
0640
0240
0100
ENDCHAR
STARTCHAR egrave
ENCODING 232
SWIDTH 632 0
DWIDTH 6 0
BBX 6 11 0 -1
BITMAP
2000
7D00
1540
7FE0
3FD0
3FC0
2C40
2F80
1D40
1F80
0140
ENDCHAR
STARTCHAR eacute
ENCODING 233
SWIDTH 632 0
DWIDTH 6 0
BBX 7 11 0 -1
BITMAP
0060
01E4
1640
7FE0
3FD0
3FC0
2C40
2F80
1D40
1F80
0140
ENDCHAR
STARTCHAR ecircumflex
ENCODING 234
SWIDTH 632 0
DWIDTH 6 0
BBX 6 13 0 -1
BITMAP
0500
1F40
2AC0
2080
1540
7FE0
3FD0
3FC0
2C40
2F80
1D40
1F80
0140
ENDCHAR
STARTCHAR edieresis
ENCODING 235
SWIDTH 632 0
DWIDTH 6 0
BBX 6 12 0 -1
BITMAP
1450
79E0
79E0
1540
7FE0
3FD0
3FC0
2C40
2F80
1D40
1F80
0140
ENDCHAR
STARTCHAR igrave
ENCODING 236
SWIDTH 411 0
DWIDTH 4 0
BBX 5 10 -1 0
BITMAP
2000
7D00
1940
1F80
0B40
0B00
0B00
0B00
0600
0600
ENDCHAR
STARTCHAR iacute
ENCODING 237
SWIDTH 411 0
DWIDTH 4 0
BBX 5 10 0 0
BITMAP
0180
0780
5900
7E00
2D00
2C00
2C00
2C00
1800
1800
ENDCHAR
STARTCHAR icircumflex
ENCODING 238
SWIDTH 411 0
DWIDTH 4 0
BBX 5 12 0 0
BITMAP
1400
3E00
A700
8240
5500
7E00
2D00
2C00
2C00
2C00
1800
1800
ENDCHAR
STARTCHAR idieresis
ENCODING 239
SWIDTH 411 0
DWIDTH 4 0
BBX 6 11 -1 0
BITMAP
1150
7AD0
7AD0
1540
1F80
0B40
0B00
0B00
0B00
0600
0600
ENDCHAR
STARTCHAR eth
ENCODING 240
SWIDTH 530 0
DWIDTH 5 0
BBX 6 9 0 -1
BITMAP
0500
3FC0
2FD0
2FD0
2DD0
6DC0
1D80
1F80
0200
ENDCHAR
STARTCHAR ntilde
ENCODING 241
SWIDTH 664 0
DWIDTH 7 0
BBX 6 12 0 -1
BITMAP
0040
3BD0
1980
5450
7DF0
3EE0
3FE0
3FD0
2FD0
2BC0
2A80
1540
ENDCHAR
STARTCHAR ograve
ENCODING 242
SWIDTH 545 0
DWIDTH 5 0
BBX 6 11 0 -1
BITMAP
A000
B800
0900
7F80
BFD0
BFD0
77C0
76C0
3780
2F40
0100
ENDCHAR
STARTCHAR oacute
ENCODING 243
SWIDTH 545 0
DWIDTH 5 0
BBX 6 11 0 -1
BITMAP
0090
02E0
0600
7F80
BFD0
BFD0
77C0
76C0
3780
2F40
0100
ENDCHAR
STARTCHAR ocircumflex
ENCODING 244
SWIDTH 545 0
DWIDTH 5 0
BBX 6 13 0 -1
BITMAP
0500
2F00
3740
5180
0500
7F80
BFD0
BFD0
77C0
76C0
3780
2F40
0100
ENDCHAR
STARTCHAR otilde
ENCODING 245
SWIDTH 545 0
DWIDTH 5 0
BBX 6 12 0 -1
BITMAP
0100
BB80
2540
0500
7F80
BFD0
BFD0
77C0
76C0
3780
2F40
0100
ENDCHAR
STARTCHAR odieresis
ENCODING 246
SWIDTH 545 0
DWIDTH 5 0
BBX 6 12 0 -1
BITMAP
5140
B7C0
B7C0
0500
7F80
BFD0
BFD0
77C0
76C0
3780
2F40
0100
ENDCHAR
STARTCHAR oslash
ENCODING 248
SWIDTH 676 0
DWIDTH 7 0
BBX 6 9 0 -1
BITMAP
0500
3F90
BFD0
7FC0
77C0
36C0
3780
6F40
0100
ENDCHAR
STARTCHAR ugrave
ENCODING 249
SWIDTH 708 0
DWIDTH 7 0
BBX 7 10 0 0
BITMAP
2400
2E00
1540
7CB8
3DB4
2DB0
2DF0
2DE0
1EE0
0AD0
ENDCHAR
STARTCHAR uacute
ENCODING 250
SWIDTH 708 0
DWIDTH 7 0
BBX 7 10 0 0
BITMAP
0024
00B8
1440
7CB8
3DB4
2DB0
2DF0
2DE0
1EE0
0AD0
ENDCHAR
STARTCHAR ucircumflex
ENCODING 251
SWIDTH 708 0
DWIDTH 7 0
BBX 7 12 0 0
BITMAP
0540
0BC0
1DD0
1460
1440
7CB8
3DB4
2DB0
2DF0
2DE0
1EE0
0AD0
ENDCHAR
STARTCHAR udieresis
ENCODING 252
SWIDTH 708 0
DWIDTH 7 0
BBX 7 11 0 0
BITMAP
1450
2CF0
2CF0
1440
7CB8
3DB4
2DB0
2DF0
2DE0
1EE0
0AD0
ENDCHAR
STARTCHAR yacute
ENCODING 253
SWIDTH 604 0
DWIDTH 6 0
BBX 5 11 1 -1
BITMAP
0180
0780
4500
AB40
7E00
3D00
2C00
1C00
1C00
1C00
1400
ENDCHAR
STARTCHAR thorn
ENCODING 254
SWIDTH 498 0
DWIDTH 5 0
BBX 5 10 0 -1
BITMAP
B800
B900
BF80
7F80
7F80
7A80
3F40
3900
2800
1400
ENDCHAR
STARTCHAR ydieresis
ENCODING 255
SWIDTH 604 0
DWIDTH 6 0
BBX 5 12 1 -1
BITMAP
5140
F780
F780
4000
AB40
7E00
3D00
2C00
1C00
1C00
1C00
1400
ENDCHAR
STARTCHAR Amacron
ENCODING 256
SWIDTH 494 0
DWIDTH 5 0
BBX 5 10 0 -1
BITMAP
7F00
1500
7F40
3F00
3E00
3E00
3A00
3E00
3A00
2500
ENDCHAR
STARTCHAR amacron
ENCODING 257
SWIDTH 479 0
DWIDTH 5 0
BBX 5 10 0 -1
BITMAP
3F40
5940
7F40
3F00
3F00
3F00
3B00
3B00
3B00
2200
ENDCHAR
STARTCHAR Abreve
ENCODING 258
SWIDTH 494 0
DWIDTH 5 0
BBX 5 12 0 -1
BITMAP
3580
2F40
0100
1400
7F40
3F00
3E00
3E00
3A00
3E00
3A00
2500
ENDCHAR
STARTCHAR abreve
ENCODING 259
SWIDTH 479 0
DWIDTH 5 0
BBX 5 12 0 -1
BITMAP
3580
2F40
0100
5540
7F40
3F00
3F00
3F00
3B00
3B00
3B00
2200
ENDCHAR
STARTCHAR Aogonek
ENCODING 260
SWIDTH 494 0
DWIDTH 5 0
BBX 5 12 0 -4
BITMAP
1400
7F40
3F00
3E00
3E00
3A00
3E00
3A00
2900
0900
0D00
0B80
ENDCHAR
STARTCHAR aogonek
ENCODING 261
SWIDTH 479 0
DWIDTH 5 0
BBX 5 12 0 -4
BITMAP
5540
7F40
3F00
3F00
3F00
3B00
3B00
3B00
2600
0600
0780
0180
ENDCHAR
STARTCHAR Cacute
ENCODING 262
SWIDTH 504 0
DWIDTH 5 0
BBX 5 11 0 -1
BITMAP
0180
0780
0900
7F40
BF80
BF80
B780
7400
7740
3F00
0500
ENDCHAR
STARTCHAR cacute
ENCODING 263
SWIDTH 534 0
DWIDTH 5 0
BBX 6 11 0 -1
BITMAP
0180
0790
0900
7F80
BFC0
BFC0
76C0
7400
3A40
2F40
0500
ENDCHAR
STARTCHAR Ccircumflex
ENCODING 264
SWIDTH 504 0
DWIDTH 5 0
BBX 5 13 0 -1
BITMAP
0500
2F00
3780
5180
0500
7F40
BF80
BF80
B780
7400
7740
3F00
0500
ENDCHAR
STARTCHAR ccircumflex
ENCODING 265
SWIDTH 534 0
DWIDTH 5 0
BBX 5 13 0 -1
BITMAP
0500
1F40
2A80
2080
0500
7F80
BFC0
BFC0
76C0
7400
3A40
2F40
0500
ENDCHAR
STARTCHAR Cdotaccent
ENCODING 266
SWIDTH 504 0
DWIDTH 5 0
BBX 5 13 0 -1
BITMAP
0500
2F00
2F00
1A00
0500
7F40
BF80
BF80
B780
7400
7740
3F00
0500
ENDCHAR
STARTCHAR cdotaccent
ENCODING 267
SWIDTH 534 0
DWIDTH 5 0
BBX 5 13 0 -1
BITMAP
0500
1F00
1F40
1A00
0500
7F80
BFC0
BFC0
76C0
7400
3A40
2F40
0500
ENDCHAR
STARTCHAR Ccaron
ENCODING 268
SWIDTH 504 0
DWIDTH 5 0
BBX 5 13 0 -1
BITMAP
5140
7380
3F00
1E00
0500
7F40
BF80
BF80
B780
7400
7740
3F00
0500
ENDCHAR
STARTCHAR ccaron
ENCODING 269
SWIDTH 534 0
DWIDTH 5 0
BBX 5 13 0 -1
BITMAP
1040
36C0
2F40
1F00
0500
7F80
BFC0
BFC0
76C0
7400
3A40
2F40
0500
ENDCHAR
STARTCHAR Dcaron
ENCODING 270
SWIDTH 522 0
DWIDTH 5 0
BBX 5 13 0 -1
BITMAP
1040
35C0
2F80
0F00
0500
BF80
7FC0
3FC0
3980
3980
2A40
2F40
1500
ENDCHAR
STARTCHAR dcaron
ENCODING 271
SWIDTH 522 0
DWIDTH 5 0
BBX 5 13 0 -1
BITMAP
1040
35C0
2F80
0F00
0500
BF80
7FC0
3FC0
3980
3980
2A40
2F40
1500
ENDCHAR
STARTCHAR Eth.dup2
ENCODING 272
SWIDTH 530 0
DWIDTH 5 0
BBX 6 9 0 -1
BITMAP
0500
3FC0
2FD0
2FD0
2DD0
6DC0
1D80
1F80
0200
ENDCHAR
STARTCHAR Emacron
ENCODING 274
SWIDTH 570 0
DWIDTH 6 0
BBX 5 10 0 -1
BITMAP
2F40
1540
7FC0
3F80
3F80
3900
2F00
2900
2F00
0400
ENDCHAR
STARTCHAR emacron
ENCODING 275
SWIDTH 632 0
DWIDTH 6 0
BBX 6 10 0 -1
BITMAP
2F80
1540
7FE0
3FD0
3FC0
2C40
2F80
1D40
1F80
0140
ENDCHAR
STARTCHAR Ebreve
ENCODING 276
SWIDTH 570 0
DWIDTH 6 0
BBX 5 12 0 -1
BITMAP
28C0
1F80
0140
1540
7FC0
3F80
3F80
3900
2F00
2900
2F00
0400
ENDCHAR
STARTCHAR ebreve
ENCODING 277
SWIDTH 632 0
DWIDTH 6 0
BBX 6 12 0 -1
BITMAP
0DA0
0BD0
0040
1540
7FE0
3FD0
3FC0
2C40
2F80
1D40
1F80
0140
ENDCHAR
STARTCHAR Edotaccent
ENCODING 278
SWIDTH 570 0
DWIDTH 6 0
BBX 5 13 0 -1
BITMAP
0500
1F00
1F00
1A00
1540
7FC0
3F80
3F80
3900
2F00
2900
2F00
0400
ENDCHAR
STARTCHAR edotaccent
ENCODING 279
SWIDTH 632 0
DWIDTH 6 0
BBX 6 13 0 -1
BITMAP
0500
1F40
0F40
0A40
1540
7FE0
3FD0
3FC0
2C40
2F80
1D40
1F80
0140
ENDCHAR
STARTCHAR Eogonek
ENCODING 280
SWIDTH 513 0
DWIDTH 5 0
BBX 5 12 0 -4
BITMAP
1540
7FC0
3F80
3F80
3900
2F00
2900
2F00
0600
0600
07C0
0040
ENDCHAR
STARTCHAR eogonek
ENCODING 281
SWIDTH 632 0
DWIDTH 6 0
BBX 6 12 0 -4
BITMAP
1540
7FE0
3FD0
3FC0
2C40
2F80
1D40
1F80
0300
0340
02E0
0040
ENDCHAR
STARTCHAR Ecaron
ENCODING 282
SWIDTH 570 0
DWIDTH 6 0
BBX 5 13 0 -1
BITMAP
1040
35C0
2F80
0F00
1540
7FC0
3F80
3F80
3900
2F00
2900
2F00
0400
ENDCHAR
STARTCHAR ecaron
ENCODING 283
SWIDTH 632 0
DWIDTH 6 0
BBX 6 13 0 -1
BITMAP
1450
1CE0
0FC0
0B80
1540
7FE0
3FD0
3FC0
2C40
2F80
1D40
1F80
0140
ENDCHAR
STARTCHAR Gcircumflex
ENCODING 284
SWIDTH 499 0
DWIDTH 5 0
BBX 5 13 0 -1
BITMAP
1500
3E00
7740
9140
0400
7F40
BF80
BF80
7780
7640
7780
3F40
1500
ENDCHAR
STARTCHAR gcircumflex
ENCODING 285
SWIDTH 546 0
DWIDTH 5 0
BBX 6 13 0 -1
BITMAP
0500
2F00
3740
5180
0500
7F80
BFD0
BFD0
76C0
7640
3BC0
2F80
1A40
ENDCHAR
STARTCHAR Gbreve
ENCODING 286
SWIDTH 499 0
DWIDTH 5 0
BBX 5 12 0 -1
BITMAP
3240
2F40
0500
0400
7F40
BF80
BF80
7780
7640
7780
3F40
1500
ENDCHAR
STARTCHAR gbreve
ENCODING 287
SWIDTH 546 0
DWIDTH 5 0
BBX 6 12 0 -1
BITMAP
3580
2F40
0100
0500
7F80
BFD0
BFD0
76C0
7640
3BC0
2F80
1A40
ENDCHAR
STARTCHAR Gdotaccent
ENCODING 288
SWIDTH 499 0
DWIDTH 5 0
BBX 5 13 0 -1
BITMAP
1500
3E00
2E00
1900
0400
7F40
BF80
BF80
7780
7640
7780
3F40
1500
ENDCHAR
STARTCHAR gdotaccent
ENCODING 289
SWIDTH 546 0
DWIDTH 5 0
BBX 6 13 0 -1
BITMAP
0500
2F00
2F00
1A00
0500
7F80
BFD0
BFD0
76C0
7640
3BC0
2F80
1A40
ENDCHAR
STARTCHAR Gcommaaccent
ENCODING 290
SWIDTH 499 0
DWIDTH 5 0
BBX 5 14 0 -6
BITMAP
0400
7F40
BF80
BF80
7780
7640
7780
3F40
1500
0500
1F00
1F00
0300
0600
ENDCHAR
STARTCHAR Hcircumflex
ENCODING 292
SWIDTH 726 0
DWIDTH 7 0
BBX 7 13 0 -1
BITMAP
0540
0B80
1DD0
2460
0450
7CB8
3CF4
3CF0
2DE0
2FE0
1DD0
1DD0
0040
ENDCHAR
STARTCHAR hcircumflex
ENCODING 293
SWIDTH 730 0
DWIDTH 7 0
BBX 7 13 0 -1
BITMAP
0540
0BC0
1DD0
1460
0454
7CB8
3CB4
3CB0
2DE0
2EE0
1DD0
1DD0
0040
ENDCHAR
STARTCHAR hbar
ENCODING 295
SWIDTH 704 0
DWIDTH 7 0
BBX 7 9 0 -1
BITMAP
1454
7CF4
3FF0
3EE0
2DE0
2ED0
1DD0
1DD0
0040
ENDCHAR
STARTCHAR Itilde
ENCODING 296
SWIDTH 401 0
DWIDTH 4 0
BBX 5 12 -1 -1
BITMAP
0100
7BC0
2940
1540
1F40
0F40
0F00
0F00
0B00
0B00
0600
0100
ENDCHAR
STARTCHAR itilde
ENCODING 297
SWIDTH 411 0
DWIDTH 4 0
BBX 5 11 -1 0
BITMAP
0100
7BC0
2940
1540
1F80
0B40
0B00
0B00
0B00
0600
0600
ENDCHAR
STARTCHAR Imacron
ENCODING 298
SWIDTH 401 0
DWIDTH 4 0
BBX 4 10 0 -1
BITMAP
BE
55
7D
3D
3C
3C
2C
2C
18
04
ENDCHAR
STARTCHAR imacron
ENCODING 299
SWIDTH 411 0
DWIDTH 4 0
BBX 4 9 0 0
BITMAP
BE
55
7E
2D
2C
2C
2C
18
18
ENDCHAR
STARTCHAR Ibreve
ENCODING 300
SWIDTH 401 0
DWIDTH 4 0
BBX 4 12 0 -1
BITMAP
A7
7E
05
55
7D
3D
3C
3C
2C
2C
18
04
ENDCHAR
STARTCHAR ibreve
ENCODING 301
SWIDTH 411 0
DWIDTH 4 0
BBX 4 11 0 0
BITMAP
A7
7E
05
55
7E
2D
2C
2C
2C
18
18
ENDCHAR
STARTCHAR Iogonek
ENCODING 302
SWIDTH 401 0
DWIDTH 4 0
BBX 4 12 0 -4
BITMAP
55
7D
3D
3C
3C
2C
2C
1C
24
24
29
1A
ENDCHAR
STARTCHAR iogonek
ENCODING 303
SWIDTH 412 0
DWIDTH 4 0
BBX 4 12 0 -4
BITMAP
55
7D
2D
2C
2C
2C
18
18
24
24
29
09
ENDCHAR
STARTCHAR Idotaccent
ENCODING 304
SWIDTH 401 0
DWIDTH 4 0
BBX 4 13 0 -1
BITMAP
14
7D
7D
68
55
7D
3D
3C
3C
2C
2C
18
04
ENDCHAR
STARTCHAR dotlessi
ENCODING 305
SWIDTH 411 0
DWIDTH 4 0
BBX 4 8 0 0
BITMAP
55
7E
2D
2C
2C
2C
18
18
ENDCHAR
STARTCHAR IJ
ENCODING 306
SWIDTH 908 0
DWIDTH 9 0
BBX 9 9 0 -1
BITMAP
550500
7E0B40
3D0B00
3D0B00
3C0B00
2C5A00
2CAA00
1C7D00
040000
ENDCHAR
STARTCHAR ij
ENCODING 307
SWIDTH 901 0
DWIDTH 9 0
BBX 9 9 0 -1
BITMAP
550500
7E0F40
2D0B00
2D0B00
2C0B00
2C5B00
1CAA00
1C7E00
000400
ENDCHAR
STARTCHAR Jcircumflex
ENCODING 308
SWIDTH 455 0
DWIDTH 5 0
BBX 5 13 0 -1
BITMAP
0500
2F00
3780
5080
0500
1F00
0E00
0D00
0D00
5D00
DC00
B800
1000
ENDCHAR
STARTCHAR jcircumflex
ENCODING 309
SWIDTH 458 0
DWIDTH 5 0
BBX 5 13 0 -1
BITMAP
0500
2F00
3780
6080
1400
1F00
1E00
0E00
0E00
5E00
DD00
BD00
0400
ENDCHAR
STARTCHAR Kcommaaccent
ENCODING 310
SWIDTH 580 0
DWIDTH 6 0
BBX 5 14 0 -6
BITMAP
5540
7AC0
3B40
2F00
2F00
1F00
1F40
1A40
0000
0500
0F40
0F40
0240
0200
ENDCHAR
STARTCHAR kcommaaccent
ENCODING 311
SWIDTH 636 0
DWIDTH 6 0
BBX 6 14 0 -6
BITMAP
1450
7DD0
3E80
2E40
1F00
1F00
0E40
0DC0
0040
0540
0B80
0B80
0180
0140
ENDCHAR
STARTCHAR kgreenlandic
ENCODING 312
SWIDTH 636 0
DWIDTH 6 0
BBX 6 9 0 -1
BITMAP
1450
7DD0
3E80
2E40
1F00
1F00
0E40
0DC0
0040
ENDCHAR
STARTCHAR Lacute
ENCODING 313
SWIDTH 416 0
DWIDTH 4 0
BBX 5 11 0 -1
BITMAP
0180
0780
5900
7C00
7800
3800
3800
3800
2D00
2F40
0500
ENDCHAR
STARTCHAR lacute
ENCODING 314
SWIDTH 438 0
DWIDTH 4 0
BBX 6 11 0 -1
BITMAP
0180
0790
1900
7D00
3C00
3C00
2C00
2C00
1D40
1F40
1100
ENDCHAR
STARTCHAR Lcommaaccent
ENCODING 315
SWIDTH 416 0
DWIDTH 4 0
BBX 5 14 0 -6
BITMAP
5400
7C00
7800
3800
3800
3800
2D00
2F40
0500
1400
2E00
3E00
0900
0900
ENDCHAR
STARTCHAR lcommaaccent
ENCODING 316
SWIDTH 438 0
DWIDTH 4 0
BBX 5 14 0 -6
BITMAP
1500
7D00
3C00
3C00
2C00
2C00
1D40
1F40
1100
1500
2E00
2E00
0600
0500
ENDCHAR
STARTCHAR Lcaron
ENCODING 317
SWIDTH 714 0
DWIDTH 7 0
BBX 7 9 0 -1
BITMAP
5454
7CB8
78F8
3868
3818
3814
2D00
2F40
0500
ENDCHAR
STARTCHAR lcaron
ENCODING 318
SWIDTH 782 0
DWIDTH 8 0
BBX 8 9 0 -1
BITMAP
1514
7D3D
3C3D
3C2D
2C09
2C04
1D40
1F40
1100
ENDCHAR
STARTCHAR Ldotaccent
ENCODING 319
SWIDTH 567 0
DWIDTH 6 0
BBX 6 9 0 -1
BITMAP
5400
7C00
79F0
39F0
39F0
3800
2D00
2F40
0500
ENDCHAR
STARTCHAR ldot
ENCODING 320
SWIDTH 660 0
DWIDTH 7 0
BBX 7 9 0 -1
BITMAP
1500
7D00
3C54
3CBC
2CBC
2C64
1D40
1F40
1100
ENDCHAR
STARTCHAR Lslash
ENCODING 321
SWIDTH 428 0
DWIDTH 4 0
BBX 5 9 0 -1
BITMAP
5400
7C00
3900
3F40
BE40
7800
2D00
1F40
0500
ENDCHAR
STARTCHAR lslash
ENCODING 322
SWIDTH 457 0
DWIDTH 5 0
BBX 5 9 0 -1
BITMAP
1500
7D00
3D40
3FC0
BE40
7C00
1D40
1F40
0140
ENDCHAR
STARTCHAR Nacute
ENCODING 323
SWIDTH 610 0
DWIDTH 6 0
BBX 7 11 0 -1
BITMAP
0060
01E4
1540
7DD0
3EC0
3FC0
3FC0
2F80
2B80
2A80
1540
ENDCHAR
STARTCHAR nacute
ENCODING 324
SWIDTH 664 0
DWIDTH 7 0
BBX 7 11 0 -1
BITMAP
0020
01F4
5550
7DF0
3EE0
3FE0
3FD0
2FD0
2BC0
2A80
1540
ENDCHAR
STARTCHAR Ncommaaccent
ENCODING 325
SWIDTH 610 0
DWIDTH 6 0
BBX 6 15 0 -7
BITMAP
1540
7DD0
3EC0
3FC0
3FC0
2F80
2B80
2A80
1540
0000
0540
0B80
0B80
0180
0140
ENDCHAR
STARTCHAR ncommaaccent
ENCODING 326
SWIDTH 664 0
DWIDTH 7 0
BBX 6 14 0 -6
BITMAP
5450
7DF0
3EE0
3FE0
3FD0
2FD0
2BC0
2A80
1540
0140
07C0
07C0
01C0
0180
ENDCHAR
STARTCHAR Ncaron
ENCODING 327
SWIDTH 610 0
DWIDTH 6 0
BBX 6 13 0 -1
BITMAP
1040
29D0
1F80
0B40
1540
7DD0
3EC0
3FC0
3FC0
2F80
2B80
2A80
1540
ENDCHAR
STARTCHAR ncaron
ENCODING 328
SWIDTH 664 0
DWIDTH 7 0
BBX 6 13 0 -1
BITMAP
1450
1CE0
0FC0
0780
5450
7DF0
3EE0
3FE0
3FD0
2FD0
2BC0
2A80
1540
ENDCHAR
STARTCHAR Omacron
ENCODING 332
SWIDTH 504 0
DWIDTH 5 0
BBX 5 10 0 -1
BITMAP
7F00
1500
7F40
BF80
BF80
7780
7380
3740
3F00
0500
ENDCHAR
STARTCHAR omacron
ENCODING 333
SWIDTH 545 0
DWIDTH 5 0
BBX 6 10 0 -1
BITMAP
3F40
0500
7F80
BFD0
BFD0
77C0
76C0
3780
2F40
0100
ENDCHAR
STARTCHAR Obreve
ENCODING 334
SWIDTH 504 0
DWIDTH 5 0
BBX 5 12 0 -1
BITMAP
3240
2F40
0100
0400
7F40
BF80
BF80
7780
7380
3740
3F00
0500
ENDCHAR
STARTCHAR obreve
ENCODING 335
SWIDTH 545 0
DWIDTH 5 0
BBX 6 12 0 -1
BITMAP
3680
2F40
0100
0500
7F80
BFD0
BFD0
77C0
76C0
3780
2F40
0100
ENDCHAR
STARTCHAR Ohungarumlaut
ENCODING 336
SWIDTH 504 0
DWIDTH 5 0
BBX 5 12 0 -1
BITMAP
3680
7340
8500
0400
7F40
BF80
BF80
7780
7380
3740
3F00
0500
ENDCHAR
STARTCHAR ohungarumlaut
ENCODING 337
SWIDTH 545 0
DWIDTH 5 0
BBX 6 12 0 -1
BITMAP
29D0
3640
5200
0500
7F80
BFD0
BFD0
77C0
76C0
3780
2F40
0100
ENDCHAR
STARTCHAR OE
ENCODING 338
SWIDTH 789 0
DWIDTH 8 0
BBX 8 9 0 -1
BITMAP
0554
7FFD
BFFC
BFF8
77D0
73F0
7790
3FF4
0550
ENDCHAR
STARTCHAR oe
ENCODING 339
SWIDTH 778 0
DWIDTH 8 0
BBX 8 9 0 -1
BITMAP
0550
7FFD
BFF8
BFF8
77C0
73F0
3790
2FF0
0550
ENDCHAR
STARTCHAR Racute
ENCODING 340
SWIDTH 599 0
DWIDTH 6 0
BBX 6 11 0 -1
BITMAP
0060
02E0
1640
7FD0
2FE0
2EE0
2CE0
1FD0
1EC0
0DC0
0440
ENDCHAR
STARTCHAR racute
ENCODING 341
SWIDTH 616 0
DWIDTH 6 0
BBX 7 11 0 -1
BITMAP
0060
01E4
1640
7FE0
2FF0
2EE0
2DE0
1FD0
1EC0
1DC0
0480
ENDCHAR
STARTCHAR Rcommaaccent
ENCODING 342
SWIDTH 599 0
DWIDTH 6 0
BBX 6 14 0 -6
BITMAP
1500
7FD0
2FE0
2EE0
2CE0
1FD0
1EC0
0DC0
0440
0500
0F40
0F40
0240
0240
ENDCHAR
STARTCHAR rcommaaccent
ENCODING 343
SWIDTH 616 0
DWIDTH 6 0
BBX 6 14 0 -6
BITMAP
1500
7FE0
2FF0
2EE0
2DE0
1FD0
1EC0
1DC0
0480
0540
0B80
0B80
0180
0240
ENDCHAR
STARTCHAR Rcaron
ENCODING 344
SWIDTH 599 0
DWIDTH 6 0
BBX 6 13 0 -1
BITMAP
1440
28D0
0FC0
0B40
1500
7FD0
2FE0
2EE0
2CE0
1FD0
1EC0
0DC0
0440
ENDCHAR
STARTCHAR rcaron
ENCODING 345
SWIDTH 616 0
DWIDTH 6 0
BBX 6 13 0 -1
BITMAP
1040
28D0
1FC0
0B40
1500
7FE0
2FF0
2EE0
2DE0
1FD0
1EC0
1DC0
0480
ENDCHAR
STARTCHAR Sacute
ENCODING 346
SWIDTH 504 0
DWIDTH 5 0
BBX 6 11 0 -1
BITMAP
0080
07D0
0500
3F80
BF80
BF80
BA40
2F40
6740
3F00
1500
ENDCHAR
STARTCHAR sacute
ENCODING 347
SWIDTH 481 0
DWIDTH 5 0
BBX 6 11 0 -1
BITMAP
0080
07D0
0500
3F40
BF80
BF40
B640
7E00
1B00
3E00
1500
ENDCHAR
STARTCHAR Scircumflex
ENCODING 348
SWIDTH 504 0
DWIDTH 5 0
BBX 5 13 0 -1
BITMAP
0500
2F00
3780
6080
0500
3F80
BF80
BF80
BA40
2F40
6740
3F00
1500
ENDCHAR
STARTCHAR scircumflex
ENCODING 349
SWIDTH 481 0
DWIDTH 5 0
BBX 5 13 0 -1
BITMAP
0500
2F00
3740
5180
0400
3F40
BF80
BF40
B640
7E00
1B00
3E00
1500
ENDCHAR
STARTCHAR Scedilla
ENCODING 350
SWIDTH 504 0
DWIDTH 5 0
BBX 5 12 0 -4
BITMAP
0500
3F80
BF80
BF80
BA40
2F40
6740
3F00
1D00
0A00
0600
0500
ENDCHAR
STARTCHAR scedilla
ENCODING 351
SWIDTH 481 0
DWIDTH 5 0
BBX 5 12 0 -4
BITMAP
0400
3F40
BF80
BF40
B640
7E00
1B00
3E00
1D00
1900
0A00
0400
ENDCHAR
STARTCHAR Scaron
ENCODING 352
SWIDTH 503 0
DWIDTH 5 0
BBX 5 14 0 -1
BITMAP
5140
7280
3F00
1E00
0000
0500
3F80
BF80
BF80
BA40
2F40
6740
3F00
1500
ENDCHAR
STARTCHAR scaron
ENCODING 353
SWIDTH 479 0
DWIDTH 5 0
BBX 5 14 0 -1
BITMAP
5100
B380
3F00
2E00
0000
0400
3F40
BF80
BF40
B640
7E00
1B00
3E00
1400
ENDCHAR
STARTCHAR Tcommaaccent
ENCODING 354
SWIDTH 622 0
DWIDTH 6 0
BBX 6 13 0 -5
BITMAP
1540
7FE0
3FD0
3FD0
1B00
0B00
0B00
0700
0600
0200
0640
0240
0100
ENDCHAR
STARTCHAR tcommaaccent
ENCODING 355
SWIDTH 683 0
DWIDTH 7 0
BBX 7 13 0 -5
BITMAP
1550
BFF4
3FF0
3FE0
1740
0780
0340
0340
0340
0200
0280
0180
0140
ENDCHAR
STARTCHAR Tcaron
ENCODING 356
SWIDTH 622 0
DWIDTH 6 0
BBX 6 13 0 -1
BITMAP
1040
39D0
1F80
0B40
1540
7FE0
3FD0
3FD0
1B00
0B00
0B00
0700
0600
ENDCHAR
STARTCHAR tcaron
ENCODING 357
SWIDTH 622 0
DWIDTH 6 0
BBX 6 13 0 -1
BITMAP
1040
28D0
1FC0
0B40
1540
7FE0
3FD0
3FD0
1B00
0B00
0B00
0700
0600
ENDCHAR
STARTCHAR Utilde
ENCODING 360
SWIDTH 637 0
DWIDTH 6 0
BBX 6 11 0 0
BITMAP
0040
3BC0
1980
5440
79E0
39D0
3DD0
29C0
2AC0
2E80
1E40
ENDCHAR
STARTCHAR utilde
ENCODING 361
SWIDTH 708 0
DWIDTH 7 0
BBX 7 11 0 0
BITMAP
0040
2FD0
0940
1440
7CB8
3DB4
2DB0
2DF0
2DE0
1EE0
0AD0
ENDCHAR
STARTCHAR Umacron
ENCODING 362
SWIDTH 637 0
DWIDTH 6 0
BBX 6 9 0 0
BITMAP
1FC0
5440
79E0
39D0
3DD0
29C0
2AC0
2E80
1E40
ENDCHAR
STARTCHAR umacron
ENCODING 363
SWIDTH 708 0
DWIDTH 7 0
BBX 7 9 0 0
BITMAP
0FD0
1440
7CB8
3DB4
2DB0
2DF0
2DE0
1EE0
0AD0
ENDCHAR
STARTCHAR Ubreve
ENCODING 364
SWIDTH 637 0
DWIDTH 6 0
BBX 6 11 0 0
BITMAP
1C90
0FC0
0140
5440
79E0
39D0
3DD0
29C0
2AC0
2E80
1E40
ENDCHAR
STARTCHAR ubreve
ENCODING 365
SWIDTH 708 0
DWIDTH 7 0
BBX 7 11 0 0
BITMAP
0D60
0BD0
0040
1440
7CB8
3DB4
2DB0
2DF0
2DE0
1EE0
0AD0
ENDCHAR
STARTCHAR Uring
ENCODING 366
SWIDTH 637 0
DWIDTH 6 0
BBX 6 11 0 0
BITMAP
0640
0980
0A40
5440
79E0
39D0
3DD0
29C0
2AC0
2E80
1E40
ENDCHAR
STARTCHAR uring
ENCODING 367
SWIDTH 708 0
DWIDTH 7 0
BBX 7 11 0 0
BITMAP
0240
0980
0680
1440
7CB8
3DB4
2DB0
2DF0
2DE0
1EE0
0AD0
ENDCHAR
STARTCHAR Uhungarumlaut
ENCODING 368
SWIDTH 637 0
DWIDTH 6 0
BBX 6 11 0 0
BITMAP
0DE0
29C0
2100
5440
79E0
39D0
3DD0
29C0
2AC0
2E80
1E40
ENDCHAR
STARTCHAR uhungarumlaut
ENCODING 369
SWIDTH 708 0
DWIDTH 7 0
BBX 7 11 0 0
BITMAP
0AB0
1DD0
1440
1440
7CB8
3DB4
2DB0
2DF0
2DE0
1EE0
0AD0
ENDCHAR
STARTCHAR Uogonek
ENCODING 370
SWIDTH 637 0
DWIDTH 6 0
BBX 6 11 0 -3
BITMAP
5440
79E0
39D0
3DD0
29C0
2AC0
2E80
1F40
0300
0340
02D0
ENDCHAR
STARTCHAR uogonek
ENCODING 371
SWIDTH 662 0
DWIDTH 7 0
BBX 7 11 0 -3
BITMAP
1440
7CF8
3CB4
2DB0
2DE0
2DE0
1EE0
0FD0
0600
0740
02D0
ENDCHAR
STARTCHAR Wcircumflex
ENCODING 372
SWIDTH 777 0
DWIDTH 8 0
BBX 8 12 0 0
BITMAP
0140
0BC0
0DA0
1820
0554
7AAD
2FF4
1FF0
0FE0
0BE0
06D0
0680
ENDCHAR
STARTCHAR wcircumflex
ENCODING 373
SWIDTH 704 0
DWIDTH 7 0
BBX 7 12 0 0
BITMAP
0540
0BC0
1DD0
1460
0100
7B78
2BB0
1FE0
0FE0
0FD0
0AD0
05C0
ENDCHAR
STARTCHAR Ycircumflex
ENCODING 374
SWIDTH 688 0
DWIDTH 7 0
BBX 6 12 1 0
BITMAP
1500
3E00
7740
9140
5100
B7D0
2F80
1F00
0F00
0B00
0A00
0600
ENDCHAR
STARTCHAR ycircumflex
ENCODING 375
SWIDTH 604 0
DWIDTH 6 0
BBX 5 13 1 -1
BITMAP
1400
7D00
AA00
8200
4000
AB40
7E00
3D00
2C00
1C00
1C00
1C00
1400
ENDCHAR
STARTCHAR Ydieresis
ENCODING 376
SWIDTH 688 0
DWIDTH 7 0
BBX 6 11 1 0
BITMAP
5140
F3C0
B3C0
5100
B7D0
2F80
1F00
0F00
0B00
0A00
0600
ENDCHAR
STARTCHAR Zacute
ENCODING 377
SWIDTH 695 0
DWIDTH 7 0
BBX 7 10 0 0
BITMAP
0024
00B8
1580
7FF8
3FF0
2FE0
1780
0B00
0E40
1F80
ENDCHAR
STARTCHAR zacute
ENCODING 378
SWIDTH 622 0
DWIDTH 6 0
BBX 7 11 0 -1
BITMAP
0060
01E4
1640
7FE0
3FD0
2FC0
1740
0A00
0A00
0F80
0140
ENDCHAR
STARTCHAR Zdotaccent
ENCODING 379
SWIDTH 695 0
DWIDTH 7 0
BBX 7 12 0 0
BITMAP
0140
0BC0
0BC0
0680
1540
7FF8
3FF0
2FE0
1780
0B00
0E40
1F80
ENDCHAR
STARTCHAR zdotaccent
ENCODING 380
SWIDTH 622 0
DWIDTH 6 0
BBX 6 13 0 -1
BITMAP
0500
1F40
0F40
0A40
1540
7FE0
3FD0
2FC0
1740
0A00
0A00
0F80
0140
ENDCHAR
STARTCHAR Zcaron
ENCODING 381
SWIDTH 693 0
DWIDTH 7 0
BBX 7 13 0 0
BITMAP
0450
1CA0
0FC0
0780
0000
1540
7FF8
3FF0
2FE0
1780
0B00
0E40
1F80
ENDCHAR
STARTCHAR zcaron
ENCODING 382
SWIDTH 621 0
DWIDTH 6 0
BBX 6 14 0 -1
BITMAP
1040
29C0
1F80
0B00
0000
1540
7FE0
3FD0
2FC0
1740
0A00
0A00
0F80
0140
ENDCHAR
STARTCHAR DZ
ENCODING 497
SWIDTH 194 0
DWIDTH 2 0
BBX 1 1 0 0
BITMAP
00
ENDCHAR
STARTCHAR Dz
ENCODING 498
SWIDTH 194 0
DWIDTH 2 0
BBX 1 1 0 0
BITMAP
00
ENDCHAR
STARTCHAR dotlessj
ENCODING 567
SWIDTH 458 0
DWIDTH 5 0
BBX 4 9 0 -1
BITMAP
14
1F
1E
0E
0E
5E
DD
BD
04
ENDCHAR
STARTCHAR circumflex
ENCODING 710
SWIDTH 528 0
DWIDTH 5 0
BBX 5 4 0 7
BITMAP
0500
2F00
3740
5180
ENDCHAR
STARTCHAR caron
ENCODING 711
SWIDTH 486 0
DWIDTH 5 0
BBX 5 4 0 7
BITMAP
5100
B340
3F00
2D00
ENDCHAR
STARTCHAR breve
ENCODING 728
SWIDTH 464 0
DWIDTH 5 0
BBX 4 3 0 -1
BITMAP
63
7F
05
ENDCHAR
STARTCHAR dotaccent
ENCODING 729
SWIDTH 388 0
DWIDTH 4 0
BBX 4 4 0 2
BITMAP
14
7D
7D
28
ENDCHAR
STARTCHAR ring
ENCODING 730
SWIDTH 370 0
DWIDTH 4 0
BBX 3 3 0 3
BITMAP
28
58
68
ENDCHAR
STARTCHAR ogonek
ENCODING 731
SWIDTH 360 0
DWIDTH 4 0
BBX 3 4 0 0
BITMAP
10
60
64
2C
ENDCHAR
STARTCHAR tilde
ENCODING 732
SWIDTH 535 0
DWIDTH 5 0
BBX 5 3 0 -1
BITMAP
0100
7B80
2940
ENDCHAR
STARTCHAR hungarumlaut
ENCODING 733
SWIDTH 554 0
DWIDTH 6 0
BBX 5 3 0 7
BITMAP
2AC0
3740
5100
ENDCHAR
STARTCHAR dotaccentcmb
ENCODING 775
SWIDTH 396 0
DWIDTH 4 0
BBX 4 3 0 4
BITMAP
6D
7D
7D
ENDCHAR
STARTCHAR uni030F
ENCODING 783
SWIDTH 549 0
DWIDTH 6 0
BBX 5 3 0 7
BITMAP
B740
2680
0880
ENDCHAR
STARTCHAR uni0311
ENCODING 785
SWIDTH 490 0
DWIDTH 5 0
BBX 5 4 0 3
BITMAP
0400
3E00
7740
1000
ENDCHAR
STARTCHAR uni0326
ENCODING 806
SWIDTH 360 0
DWIDTH 4 0
BBX 3 5 0 -1
BITMAP
14
7C
7C
0C
08
ENDCHAR
STARTCHAR endash
ENCODING 8211
SWIDTH 478 0
DWIDTH 5 0
BBX 4 2 0 3
BITMAP
6A
7F
ENDCHAR
STARTCHAR emdash
ENCODING 8212
SWIDTH 567 0
DWIDTH 6 0
BBX 5 2 0 3
BITMAP
6A80
7FC0
ENDCHAR
STARTCHAR quoteleft
ENCODING 8216
SWIDTH 373 0
DWIDTH 4 0
BBX 4 6 0 2
BITMAP
10
60
64
7D
7C
18
ENDCHAR
STARTCHAR quoteright
ENCODING 8217
SWIDTH 369 0
DWIDTH 4 0
BBX 3 6 0 2
BITMAP
14
7C
BC
6C
0C
04
ENDCHAR
STARTCHAR quotesinglbase
ENCODING 8218
SWIDTH 369 0
DWIDTH 4 0
BBX 3 6 0 2
BITMAP
14
7C
BC
6C
0C
04
ENDCHAR
STARTCHAR quotedblleft
ENCODING 8220
SWIDTH 687 0
DWIDTH 7 0
BBX 7 6 0 2
BITMAP
1040
60C0
65D0
7DF4
7DF4
1860
ENDCHAR
STARTCHAR quotedblright
ENCODING 8221
SWIDTH 677 0
DWIDTH 7 0
BBX 6 6 0 2
BITMAP
1450
7DF0
BDF0
6DB0
0830
0410
ENDCHAR
STARTCHAR quotedblbase
ENCODING 8222
SWIDTH 697 0
DWIDTH 7 0
BBX 7 5 0 -3
BITMAP
68A4
7DF4
BDF4
0C24
0C24
ENDCHAR
STARTCHAR ellipsis
ENCODING 8230
SWIDTH 1462 0
DWIDTH 15 0
BBX 14 4 0 0
BITMAP
54054050
7C0B41F0
7C0B81F0
14054050
ENDCHAR
STARTCHAR guilsinglleft
ENCODING 8249
SWIDTH 459 0
DWIDTH 5 0
BBX 4 6 0 0
BITMAP
2F
3D
B8
3C
1E
01
ENDCHAR
STARTCHAR guilsinglright
ENCODING 8250
SWIDTH 432 0
DWIDTH 4 0
BBX 4 5 0 1
BITMAP
7C
2D
0F
2D
78
ENDCHAR
STARTCHAR fraction
ENCODING 8260
SWIDTH 371 0
DWIDTH 4 0
BBX 4 8 0 0
BITMAP
54
7D
3C
3C
38
28
28
28
ENDCHAR
STARTCHAR Euro
ENCODING 8364
SWIDTH 587 0
DWIDTH 6 0
BBX 6 10 0 -2
BITMAP
0500
1FC0
3FD0
3FD0
7DD0
6C00
6DC0
1F80
0500
0100
ENDCHAR
STARTCHAR trademark
ENCODING 8482
SWIDTH 785 0
DWIDTH 8 0
BBX 8 6 0 2
BITMAP
5555
BDFD
78BC
24BC
1468
1000
ENDCHAR
STARTCHAR minus
ENCODING 8722
SWIDTH 478 0
DWIDTH 5 0
BBX 4 2 0 3
BITMAP
6A
7F
ENDCHAR
STARTCHAR commaaccent
ENCODING 63171
SWIDTH 360 0
DWIDTH 4 0
BBX 3 6 0 -2
BITMAP
14
7C
BC
6C
0C
04
ENDCHAR
STARTCHAR .notdef
ENCODING -1
SWIDTH 365 0
DWIDTH 4 0
BBX 3 7 0 0
BITMAP
54
44
44
44
44
44
58
ENDCHAR
STARTCHAR .null
ENCODING -1
SWIDTH 0 0
DWIDTH 0 0
BBX 1 1 0 0
BITMAP
00
ENDCHAR
STARTCHAR nonmarkingreturn
ENCODING -1
SWIDTH 333 0
DWIDTH 3 0
BBX 1 1 0 0
BITMAP
00
ENDCHAR
ENDFONT
